<svg id="katman_1" data-name="katman 1" xmlns="http://www.w3.org/2000/svg" viewBox="0 0 57.33 31.33"><defs><style>.cls-1{fill:#fff;}</style></defs><title>ftr-money</title><path class="cls-1" d="M53.29,23.9V7.43a3.77,3.77,0,0,0-3.77-3.77h-31a1.15,1.15,0,0,0-.21,2.29H32.46a9.71,9.71,0,0,0,0,19.42H18.56a1.15,1.15,0,0,0-.21,2.29H49.56A3.77,3.77,0,0,0,53.29,23.9Zm-3.77,1.47h-2A4.16,4.16,0,0,1,51,21.68V23.9a1.47,1.47,0,0,1-1.47,1.47h0ZM51,7.43V9.21A4.16,4.16,0,0,1,47.55,6h2A1.47,1.47,0,0,1,51,7.43ZM25.3,15.66a7.43,7.43,0,1,1,7.43,7.43h0A7.44,7.44,0,0,1,25.3,15.66Zm17.15,0A9.73,9.73,0,0,0,33,6H46.93A4.78,4.78,0,0,0,51,9.83V21.06a4.78,4.78,0,0,0-4.13,4.32H33A9.73,9.73,0,0,0,42.45,15.66Z"/><path class="cls-1" d="M8.52,12H20a1.15,1.15,0,0,0,0-2.29H8.52A1.15,1.15,0,1,0,8.31,12Z"/><path class="cls-1" d="M21.1,19.74A1.15,1.15,0,0,0,20,18.6H8.49a1.15,1.15,0,0,0,0,2.29H20A1.15,1.15,0,0,0,21.1,19.74Z"/><path class="cls-1" d="M20.52,15.28a1.15,1.15,0,0,0-1.15-1.15H5.19a1.15,1.15,0,0,0,0,2.29H19.37A1.15,1.15,0,0,0,20.52,15.28Z"/><path class="cls-1" d="M30.49,17.32a2.4,2.4,0,0,0,1.86,1.23V16.34c-1.75-.56-2.73-1.26-2.73-2.75a2.21,2.21,0,0,1,.77-1.76,3.23,3.23,0,0,1,1.94-.76V9.81h1v1.32a3.45,3.45,0,0,1,2.36,1.39l-1.33,1a1.65,1.65,0,0,0-1-.67v1.9a5.19,5.19,0,0,1,2.22,1.17,2.28,2.28,0,0,1,.63,1.66c0,1.5-1,2.54-2.82,2.7v1.25h-1V20.28a3.86,3.86,0,0,1-3.3-2Zm1.86-4.51c-.53.06-.83.35-.83.76s.23.67.83.89Zm.91,5.71a.89.89,0,0,0,.92-.86s0,0,0,0c0-.46-.3-.72-.92-1Z"/></svg>