<svg id="Capa_1" data-name="Capa 1" xmlns="http://www.w3.org/2000/svg" viewBox="0 0 512 512"><defs><style>.cls-1{fill:#95ea49;}.cls-2{fill:#7bc144;}.cls-3{fill:#00914c;}.cls-4{fill:#00703d;}</style></defs><title>ftr-home</title><polygon class="cls-1" points="434.77 266.53 434.77 485.01 322.03 485.01 322.03 311.02 189.97 311.02 189.97 485.01 77.23 485.01 77.23 266.53 92.24 266.53 92.24 163.29 256 137.95 419.76 163.29 419.76 266.53 434.77 266.53"/><polygon class="cls-2" points="434.77 266.53 434.77 485.01 322.03 485.01 322.03 311.02 256 311.02 256 137.95 419.76 163.29 419.76 266.53 434.77 266.53"/><polygon class="cls-3" points="512 234.71 445.95 310.34 256 156.21 66.05 310.34 0 234.71 256 26.99 512 234.71"/><polygon class="cls-4" points="512 234.71 445.95 310.34 256 156.21 256 26.99 512 234.71"/></svg>