<svg id="Capa_1" data-name="Capa 1" xmlns="http://www.w3.org/2000/svg" viewBox="0 0 512 512"><defs><style>.cls-1{fill:#fff;}.cls-2{fill:#ededed;}.cls-3{fill:#cecece;}</style></defs><title>ftr-money2</title><path class="cls-1" d="M496,0H16A16,16,0,0,0,0,16V240a16,16,0,0,0,16,16H496a16,16,0,0,0,16-16V16A16,16,0,0,0,496,0ZM432,160a32,32,0,0,1-32,32H112a32,32,0,0,1-32-32V96a32,32,0,0,1,32-32H400a32,32,0,0,1,32,32Z"/><path class="cls-1" d="M158.69,64a269,269,0,0,1-29,198.81C60,386.72,100.6,466.38,102.34,469.59a13.48,13.48,0,0,0,11.8,7.41h190.2c5-.06,1.21-5.81,3.48-10.25A16,16,0,0,0,308,452c-1.42-2.74-25.46-65.75,35.25-173.87A300.68,300.68,0,0,0,377.24,64Z"/><path class="cls-2" d="M369.26,137.06a293,293,0,0,0-6-57.08H169.49a255.86,255.86,0,0,1,6.71,57.08Z"/><ellipse class="cls-1" cx="224" cy="288" rx="48" ry="56"/><path class="cls-3" d="M496,256H360.64a16,16,0,1,1,0-32H480V32H32V224H136.64a16,16,0,1,1,0,32H16A16,16,0,0,1,0,240V16A16,16,0,0,1,16,0H496a16,16,0,0,1,16,16V240A16,16,0,0,1,496,256Z"/><path class="cls-3" d="M304.13,479.52H104.36A14.27,14.27,0,0,1,92,472.35c-1.88-3.22-44.38-80.08,28.74-200C184.47,167.71,150.48,104,149,101.27A14.32,14.32,0,1,1,173.83,87c1.88,3.34,44.38,80.19-28.74,200.17C92.95,373,106.25,431.29,113.58,451H283.5c-8.56-31-14.5-94.18,37.1-178.62C384.36,167.74,350.37,104,348.88,101.3A14.32,14.32,0,0,1,373.71,87c1.83,3.2,44.38,80.05-28.74,200-63.75,104.59-29.77,168.38-28.28,171a14.27,14.27,0,0,1-12.56,21.43Z"/><path class="cls-3" d="M218.52,194.13a14.27,14.27,0,0,1-14.27-14.27V151.33a14.27,14.27,0,0,1,28.54,0v28.54A14.27,14.27,0,0,1,218.52,194.13Z"/><path class="cls-3" d="M247.06,422.44a14.27,14.27,0,0,1-14.27-14.27V379.63a14.27,14.27,0,1,1,28.54,0v28.54A14.27,14.27,0,0,1,247.06,422.44Z"/><path class="cls-3" d="M232.79,329.69A46.83,46.83,0,0,1,190,279.75a46.83,46.83,0,0,1,42.81-49.94,46.83,46.83,0,0,1,42.81,49.94A46.83,46.83,0,0,1,232.79,329.69Zm0-71.35c-7.62,0-14.27,10-14.27,21.4s6.65,21.4,14.27,21.4,14.27-10,14.27-21.4S240.41,258.35,232.79,258.35Z"/><path class="cls-3" d="M400,192H379.2a16,16,0,0,1,0-32H400a16,16,0,0,0,16-16V112a16,16,0,0,0-16-16H112a16,16,0,0,0-16,16v32a16,16,0,0,0,16,16h43.2a16,16,0,0,1,0,32H112a48,48,0,0,1-48-48V112a48,48,0,0,1,48-48H400a48,48,0,0,1,48,48v32A48,48,0,0,1,400,192Z"/></svg>