<svg id="Capa_1" data-name="Capa 1" xmlns="http://www.w3.org/2000/svg" viewBox="0 0 477.87 477.87"><defs><style>.cls-1{fill:#fff;}</style></defs><title>ftr-lock</title><path class="cls-1" d="M409.6,170.67H392.53V153.6a153.6,153.6,0,1,0-307.2,0v17.07H68.27A17.07,17.07,0,0,0,51.2,187.73V460.8a17.07,17.07,0,0,0,17.07,17.07H409.6a17.07,17.07,0,0,0,17.07-17.07V187.73A17.07,17.07,0,0,0,409.6,170.67ZM287.2,324.05A51.2,51.2,0,0,1,256,355.26v37.27a17.07,17.07,0,0,1-34.13,0V355.26a51.2,51.2,0,1,1,65.34-31.21Zm71.2-153.39H119.47V153.6a119.47,119.47,0,1,1,238.93,0Z"/></svg>